<?xml version="1.0"?>
<svg xmlns="http://www.w3.org/2000/svg" xmlns:xlink="http://www.w3.org/1999/xlink" xmlns:svgjs="http://svgjs.com/svgjs" version="1.1" width="512" height="512" x="0" y="0" viewBox="0 0 32 32" style="enable-background:new 0 0 512 512" xml:space="preserve" class=""><g><path xmlns="http://www.w3.org/2000/svg" d="m26.059 4c0-.796-.317-1.559-.879-2.121-.563-.563-1.326-.879-2.121-.879h-14.118c-.795 0-1.558.316-2.121.879-.562.562-.879 1.325-.879 2.121v23.588c.001 1.098.601 2.109 1.566 2.635.965.525 2.14.481 3.062-.115 0 0 5.431-3.509 5.431-3.509s5.431 3.509 5.431 3.509c.922.596 2.097.64 3.062.115.965-.526 1.565-1.537 1.566-2.635zm-2 0v23.588c-.001.366-.201.703-.522.878-.322.175-.714.16-1.021-.038l-5.973-3.859c-.331-.214-.755-.214-1.086 0l-5.973 3.859c-.307.198-.699.213-1.021.038-.321-.175-.521-.512-.522-.878v-23.588c0-.265.106-.52.293-.707.188-.188.442-.293.707-.293h14.118c.265 0 .519.105.707.293.187.187.292.442.293.707z" fill="#fd5151" data-original="#000000" style="" class=""/><path xmlns="http://www.w3.org/2000/svg" d="m18.703 8.28h-5.406c-.552 0-1 .448-1 1s.448 1 1 1h5.406c.552 0 1-.448 1-1s-.448-1-1-1z" fill="#fd5151" data-original="#000000" style="" class=""/></g></svg>
