<svg enable-background="new 0 0 64 64" height="512" viewBox="0 0 64 64" width="512" xmlns="http://www.w3.org/2000/svg"><g id="Icons"><g><g><path d="m48 60h-32c-2.209 0-4-1.791-4-4v-44c3.124-3.124 4.876-4.876 8-8h28c2.209 0 4 1.791 4 4v48c0 2.209-1.791 4-4 4z" fill="#fab400"/></g><g><path d="m42.211 48.106-2.211-1.106-4-2h-24v8h24l4-2 2.211-1.106c.737-.368.737-1.42 0-1.788z" fill="#dc9600"/></g><g><path d="m20 4v4c0 2.209-1.791 4-4 4h-4z" fill="#dc9600"/></g><g><g><path d="m47 14h-26c-.552 0-1 .448-1 1 0 .552.448 1 1 1h26c.552 0 1-.448 1-1 0-.552-.448-1-1-1z" fill="#dc9600"/></g><g><path d="m47 18h-30c-.552 0-1 .448-1 1 0 .552.448 1 1 1h30c.552 0 1-.448 1-1 0-.552-.448-1-1-1z" fill="#dc9600"/></g><g><path d="m47 22h-30c-.552 0-1 .448-1 1 0 .552.448 1 1 1h30c.552 0 1-.448 1-1 0-.552-.448-1-1-1z" fill="#dc9600"/></g><g><path d="m47 26h-30c-.552 0-1 .448-1 1 0 .552.448 1 1 1h30c.552 0 1-.448 1-1 0-.552-.448-1-1-1z" fill="#dc9600"/></g><g><path d="m47 30h-30c-.552 0-1 .448-1 1 0 .552.448 1 1 1h30c.552 0 1-.448 1-1 0-.552-.448-1-1-1z" fill="#dc9600"/></g><g><path d="m47 34h-30c-.552 0-1 .448-1 1 0 .552.448 1 1 1h30c.552 0 1-.448 1-1 0-.552-.448-1-1-1z" fill="#dc9600"/></g><g><path d="m43 38h-26c-.552 0-1 .448-1 1 0 .552.448 1 1 1h26c.552 0 1-.448 1-1 0-.552-.448-1-1-1z" fill="#dc9600"/></g></g><g><g><path d="m20 36h8v24h-8z" fill="#00a0c8" transform="matrix(0 -1 1 0 -24 72)"/></g><g><path d="m36 44v8l4-2v-4z" fill="#f0c8a0"/></g><g><path d="m40 50 2.211-1.106c.737-.369.737-1.42 0-1.789l-2.211-1.105z" fill="#0a5078"/></g><g><path d="m7 47h8v2h-8z" fill="#f0f0f0" transform="matrix(0 -1 1 0 -37 59)"/></g><g><path d="m4 46v4c0 1.105.895 2 2 2h4v-8h-4c-1.105 0-2 .895-2 2z" fill="#0a5078"/></g></g></g></g></svg>