<svg width="198" height="198" viewBox="0 0 198 198" fill="none" xmlns="http://www.w3.org/2000/svg">
<g clip-path="url(#clip0_56:86)">
<path d="M154.023 197.173L99 164.159L43.9765 197.174C42.1844 198.249 39.9523 198.277 38.1339 197.247C36.3156 196.218 35.1914 194.289 35.1914 192.199V5.80078C35.1914 2.5972 37.7886 0 40.9922 0H157.008C160.211 0 162.809 2.5972 162.809 5.80078V192.199C162.809 194.289 161.684 196.218 159.866 197.247C158.05 198.275 155.819 198.251 154.023 197.173V197.173Z" fill="url(#paint0_linear_56:86)"/>
<path d="M116.759 104.69L99.0001 95.3545L81.2416 104.691C79.2875 105.718 76.9192 105.547 75.1326 104.249C73.3463 102.951 72.4514 100.752 72.825 98.5755L76.2169 78.8014L61.8499 64.7971C60.269 63.256 59.6998 60.9508 60.3823 58.8509C61.0645 56.7511 62.8798 55.2204 65.0651 54.9029L84.9196 52.018L93.7987 34.0267C94.776 32.0467 96.7927 30.7933 99.0005 30.7933C101.208 30.7933 103.225 32.0471 104.202 34.0267L113.081 52.018L132.936 54.9029C135.121 55.2204 136.936 56.7511 137.619 58.8509C138.301 60.9508 137.732 63.256 136.151 64.7971L121.784 78.8014L125.176 98.5755C125.549 100.752 124.655 102.951 122.868 104.249C121.091 105.539 118.723 105.724 116.759 104.69V104.69Z" fill="url(#paint1_linear_56:86)"/>
</g>
<defs>
<linearGradient id="paint0_linear_56:86" x1="99" y1="198" x2="99" y2="0" gradientUnits="userSpaceOnUse">
<stop stop-color="#FD3A84"/>
<stop offset="0.0001" stop-color="#FE1E1E" stop-opacity="0.75"/>
</linearGradient>
<linearGradient id="paint1_linear_56:86" x1="99.0001" y1="105.357" x2="99.0001" y2="30.7929" gradientUnits="userSpaceOnUse">
<stop/>
<stop offset="0.0001" stop-color="#4B8FF4"/>
<stop offset="0.0002" stop-color="#FAE5B0" stop-opacity="0.84"/>
</linearGradient>
<clipPath id="clip0_56:86">
<rect width="198" height="198" fill="white"/>
</clipPath>
</defs>
</svg>
